<svg width="82" height="36" viewBox="0 0 82 36" fill="none" xmlns="http://www.w3.org/2000/svg">
<path d="M0.978912 2.98183H4.25164V6.25455H0.978912V2.98183ZM0.978912 6.25455H4.25164V9.52728H0.978912V6.25455ZM0.978912 9.52728H4.25164V12.8H0.978912V9.52728ZM0.978912 12.8H4.25164V16.0727H0.978912V12.8ZM0.978912 16.0727H4.25164V19.3455H0.978912V16.0727ZM4.25164 2.98183H7.52437V6.25455H4.25164V2.98183ZM7.52437 2.98183H10.7971V6.25455H7.52437V2.98183ZM7.52437 6.25455H10.7971V9.52728H7.52437V6.25455ZM7.52437 12.8H9.16073H10.7971V14.4364V16.0727H7.52437V12.8ZM7.52437 16.0727H10.7971V19.3455H7.52437V16.0727ZM4.25164 16.0727H7.52437V19.3455H4.25164V16.0727ZM4.25164 9.52728H7.52437V12.8H4.25164V9.52728Z" fill="#FF5757"/>
<path d="M14.057 2.98183H17.3298V6.25455H14.057V2.98183ZM14.057 6.25455H17.3298V9.52728H14.057V6.25455ZM14.057 9.52728H17.3298V12.8H14.057V9.52728ZM14.057 12.8H17.3298V16.0727H14.057V12.8ZM14.057 16.0727H17.3298V19.3455H14.057V16.0727ZM17.3298 16.0727H20.6025V19.3455H17.3298V16.0727Z" fill="#FF5757"/>
<path d="M23.8656 2.98183H27.1384V6.25455H23.8656V2.98183ZM23.8656 6.25455H27.1384V9.52728H23.8656V6.25455ZM23.8656 9.52728H27.1384V12.8H23.8656V9.52728ZM23.8656 12.8H27.1384V16.0727H23.8656V12.8ZM23.8656 16.0727H27.1384V19.3455H23.8656V16.0727ZM27.1384 2.98183H30.4111V6.25455H27.1384V2.98183ZM27.1384 16.0727H30.4111V19.3455H27.1384V16.0727ZM27.1384 9.52728H30.4111V12.8H27.1384V9.52728ZM30.4111 2.98183H33.6838V6.25455H30.4111V2.98183ZM30.4111 16.0727H33.6838V19.3455H30.4111V16.0727Z" fill="#FF5757"/>
<path d="M36.9438 2.98183H40.2165V6.25455H36.9438V2.98183ZM36.9438 6.25455H40.2165V9.52728H36.9438V6.25455ZM36.9438 9.52728H40.2165V12.8H36.9438V9.52728ZM36.9438 12.8H40.2165V16.0727H36.9438V12.8ZM36.9438 16.0727H40.2165V19.3455H36.9438V16.0727ZM40.2165 2.98183H43.4892V6.25455H40.2165V2.98183ZM40.2165 16.0727H43.4892V19.3455H40.2165V16.0727ZM40.2165 9.52728H43.4892V12.8H40.2165V9.52728ZM43.4892 2.98183H46.7619V6.25455H43.4892V2.98183ZM43.4892 16.0727H46.7619V19.3455H43.4892V16.0727Z" fill="#FF5757"/>
<path d="M50.0219 2.98183H53.2946V6.25455H50.0219V2.98183ZM50.0219 6.25455H53.2946V9.52728H50.0219V6.25455ZM50.0219 9.52728H53.2946V12.8H50.0219V9.52728ZM50.0219 12.8H53.2946V16.0727H50.0219V12.8ZM50.0219 16.0727H53.2946V19.3455H50.0219V16.0727ZM53.2946 2.98183H56.5673V6.25455H53.2946V2.98183ZM56.5673 2.98183L58.4789 4.84546L59.8401 6.25455H56.5673V2.98183ZM56.5673 6.25455H59.8401V9.52728H56.5673V6.25455ZM56.5673 9.52728H59.8401V12.8H56.5673V9.52728ZM53.2946 9.52728H56.5673V12.8H53.2946V9.52728Z" fill="#FF5757"/>
<path d="M10.7971 9.52728H7.52437V12.8L8.97891 11.3455L9.16073 11.1636L10.7971 9.52728Z" fill="#FF5757"/>
<g opacity="0.3">
<path d="M0.978912 35.7091H4.25164V32.4364H0.978912V35.7091ZM0.978912 32.4364H4.25164V29.1636H0.978912V32.4364ZM0.978912 29.1636H4.25164V25.8909H0.978912V29.1636ZM0.978912 25.8909H4.25164V22.6182H0.978912V25.8909ZM0.978912 22.6182H4.25164V19.3455H0.978912V22.6182ZM4.25164 35.7091H7.52437V32.4364H4.25164V35.7091ZM7.52437 35.7091H10.7971V32.4364H7.52437V35.7091ZM7.52437 32.4364H10.7971V29.1636H7.52437V32.4364ZM7.52437 25.8909H9.16073H10.7971V24.2545V22.6182H7.52437V25.8909ZM7.52437 22.6182H10.7971V19.3455H7.52437V22.6182ZM4.25164 22.6182H7.52437V19.3455H4.25164V22.6182ZM4.25164 29.1636H7.52437V25.8909H4.25164V29.1636Z" fill="#57B4BC"/>
<path d="M14.057 35.7091H17.3298V32.4364H14.057V35.7091ZM14.057 32.4364H17.3298V29.1636H14.057V32.4364ZM14.057 29.1636H17.3298V25.8909H14.057V29.1636ZM14.057 25.8909H17.3298V22.6182H14.057V25.8909ZM14.057 22.6182H17.3298V19.3455H14.057V22.6182ZM17.3298 22.6182H20.6025V19.3455H17.3298V22.6182Z" fill="#57B4BC"/>
<path d="M23.8656 35.7091H27.1384V32.4364H23.8656V35.7091ZM23.8656 32.4364H27.1384V29.1636H23.8656V32.4364ZM23.8656 29.1636H27.1384V25.8909H23.8656V29.1636ZM23.8656 25.8909H27.1384V22.6182H23.8656V25.8909ZM23.8656 22.6182H27.1384V19.3455H23.8656V22.6182ZM27.1384 35.7091H30.4111V32.4364H27.1384V35.7091ZM27.1384 22.6182H30.4111V19.3455H27.1384V22.6182ZM30.4111 35.7091H33.6838V32.4364H30.4111V35.7091ZM30.4111 22.6182H33.6838V19.3455H30.4111V22.6182Z" fill="#57B4BC"/>
<path d="M36.9438 35.7091H40.2165V32.4364H36.9438V35.7091ZM36.9438 32.4364H40.2165V29.1636H36.9438V32.4364ZM36.9438 29.1636H40.2165V25.8909H36.9438V29.1636ZM36.9438 25.8909H40.2165V22.6182H36.9438V25.8909ZM36.9438 22.6182H40.2165V19.3455H36.9438V22.6182ZM40.2165 35.7091H43.4892V32.4364H40.2165V35.7091ZM40.2165 22.6182H43.4892V19.3455H40.2165V22.6182ZM43.4892 35.7091H46.7619V32.4364H43.4892V35.7091ZM43.4892 22.6182H46.7619V19.3455H43.4892V22.6182Z" fill="#57B4BC"/>
<path d="M50.0219 35.7091H53.2946V32.4364H50.0219V35.7091ZM50.0219 32.4364H53.2946V29.1636H50.0219V32.4364ZM50.0219 29.1636H53.2946V25.8909H50.0219V29.1636ZM50.0219 25.8909H53.2946V22.6182H50.0219V25.8909ZM50.0219 22.6182H53.2946V19.3455H50.0219V22.6182ZM53.2946 35.7091H56.5673V32.4364H53.2946V35.7091ZM56.5673 35.7091L58.4789 33.8455L59.8401 32.4364H56.5673V35.7091ZM56.5673 32.4364H59.8401V29.1636H56.5673V32.4364ZM56.5673 29.1636H59.8401V25.8909H56.5673V29.1636ZM53.2946 29.1636H56.5673V25.8909H53.2946V29.1636Z" fill="#57B4BC"/>
<path d="M10.7971 29.1636H7.52437V25.8909L8.97891 27.3455L9.16073 27.5273L10.7971 29.1636Z" fill="#57B4BC"/>
<path d="M30.4095 32.8874L33.6836 32.8874V22.2165L30.4095 22.1671L30.4095 32.8874Z" fill="#57B4BC"/>
<path d="M43.494 33.0829L46.7681 33.0829V22.4121L43.494 22.3627L43.494 33.0829Z" fill="#57B4BC"/>
</g>
<rect x="70.1318" y="16.2835" width="8.27865" height="3.06198" fill="black"/>
<rect x="78.4104" y="10.0506" width="9.2949" height="3.32749" transform="rotate(90 78.4104 10.0506)" fill="black"/>
<path d="M63.2049 3.11228V0.134109L66.4223 3.11228H63.2049Z" fill="black"/>
<path d="M73.1072 3.11228V0.134109L69.8899 3.11228H73.1072Z" fill="black"/>
<rect x="77.7649" y="10.0506" width="3.29113" height="3.06198" fill="black"/>
<path d="M73.1073 19.3453H63.205V9.53772H66.4228V6.18518H63.205V2.98206H73.1073V19.3453ZM67.5556 6.18518V9.53772H70.8466V6.18518H67.5556Z" fill="black"/>
<rect x="78.4104" y="21.5785" width="3.29113" height="15.2055" transform="rotate(90 78.4104 21.5785)" fill="#C3E1E3"/>
<rect x="78.4104" y="32.418" width="3.29113" height="15.2055" transform="rotate(90 78.4104 32.418)" fill="#C3E1E3"/>
<rect x="78.4104" y="26.9982" width="3.29113" height="15.2055" transform="rotate(90 78.4104 26.9982)" fill="#C3E1E3"/>
</svg>
